<svg width="18" height="20" viewBox="0 0 18 20" fill="none" xmlns="http://www.w3.org/2000/svg">
<path fill-rule="evenodd" clip-rule="evenodd" d="M4.00305 20C2.90005 20 2.00305 19.103 2.00305 18V6H0.00305176V4H3.00305H4.00305V2C4.00305 0.897 4.90005 0 6.00305 0H12.0031C13.1061 0 14.0031 0.897 14.0031 2V4H15.0031H18.0031V6H16.0031V18C16.0031 19.103 15.1061 20 14.0031 20H4.00305ZM12.0031 2H6.00305V4H12.0031V2ZM13.0031 6H5.00305H4.00305V18H14.0041L14.0031 6H13.0031ZM8 8H6V16H8V8ZM12 8H10V16H12V8Z" fill="#BE1D21"/>
</svg>
